<svg width="20" height="20" viewBox="0 0 20 20" fill="none" xmlns="http://www.w3.org/2000/svg">
<path d="M15 4.99996C14.4917 4.99996 14.025 4.70829 13.7917 4.25829L13.1917 3.04996C12.8083 2.29163 11.8083 1.66663 10.9583 1.66663H9.05C8.19167 1.66663 7.19167 2.29163 6.80833 3.04996L6.20833 4.25829C5.975 4.70829 5.50833 4.99996 5 4.99996C3.19167 4.99996 1.75833 6.52496 1.875 8.32496L2.30833 15.2083C2.40833 16.925 3.33333 18.3333 5.63333 18.3333H14.3667C16.6667 18.3333 17.5833 16.925 17.6917 15.2083L18.125 8.32496C18.2417 6.52496 16.8083 4.99996 15 4.99996ZM8.75 6.04163H11.25C11.5917 6.04163 11.875 6.32496 11.875 6.66663C11.875 7.00829 11.5917 7.29163 11.25 7.29163H8.75C8.40833 7.29163 8.125 7.00829 8.125 6.66663C8.125 6.32496 8.40833 6.04163 8.75 6.04163ZM10 15.1C8.45 15.1 7.18333 13.8416 7.18333 12.2833C7.18333 10.725 8.44167 9.46663 10 9.46663C11.5583 9.46663 12.8167 10.725 12.8167 12.2833C12.8167 13.8416 11.55 15.1 10 15.1Z" fill="#98A2B3"/>
</svg>
