<svg width="18" height="18" viewBox="0 0 18 18" fill="none" xmlns="http://www.w3.org/2000/svg">
<path d="M15.075 6.915C13.7175 6.915 13.1625 5.955 13.8375 4.7775C14.2275 4.095 13.995 3.225 13.3125 2.835L12.015 2.0925C11.4225 1.74 10.6575 1.95 10.305 2.5425L10.2225 2.685C9.5475 3.8625 8.4375 3.8625 7.755 2.685L7.6725 2.5425C7.335 1.95 6.57 1.74 5.9775 2.0925L4.68 2.835C3.9975 3.225 3.765 4.1025 4.155 4.785C4.8375 5.955 4.2825 6.915 2.925 6.915C2.145 6.915 1.5 7.5525 1.5 8.34V9.66C1.5 10.44 2.1375 11.085 2.925 11.085C4.2825 11.085 4.8375 12.045 4.155 13.2225C3.765 13.905 3.9975 14.775 4.68 15.165L5.9775 15.9075C6.57 16.26 7.335 16.05 7.6875 15.4575L7.77 15.315C8.445 14.1375 9.555 14.1375 10.2375 15.315L10.32 15.4575C10.6725 16.05 11.4375 16.26 12.03 15.9075L13.3275 15.165C14.01 14.775 14.2425 13.8975 13.8525 13.2225C13.17 12.045 13.725 11.085 15.0825 11.085C15.8625 11.085 16.5075 10.4475 16.5075 9.66V8.34C16.5 7.56 15.8625 6.915 15.075 6.915ZM9 11.4375C7.6575 11.4375 6.5625 10.3425 6.5625 9C6.5625 7.6575 7.6575 6.5625 9 6.5625C10.3425 6.5625 11.4375 7.6575 11.4375 9C11.4375 10.3425 10.3425 11.4375 9 11.4375Z" fill="#7A5AF8"/>
</svg>
