<svg width="16" height="16" viewBox="0 0 16 16" fill="none" xmlns="http://www.w3.org/2000/svg">
<path d="M11.3333 1.33331H4.66659C2.82659 1.33331 1.33325 2.81998 1.33325 4.65331V8.63998V9.30665C1.33325 11.14 2.82659 12.6266 4.66659 12.6266H5.66659C5.84659 12.6266 6.08659 12.7466 6.19992 12.8933L7.19992 14.22C7.63992 14.8066 8.35992 14.8066 8.79992 14.22L9.79992 12.8933C9.92658 12.7266 10.1266 12.6266 10.3333 12.6266H11.3333C13.1733 12.6266 14.6666 11.14 14.6666 9.30665V4.65331C14.6666 2.81998 13.1733 1.33331 11.3333 1.33331ZM5.33325 7.99998C4.95992 7.99998 4.66659 7.69998 4.66659 7.33331C4.66659 6.96665 4.96659 6.66665 5.33325 6.66665C5.69992 6.66665 5.99992 6.96665 5.99992 7.33331C5.99992 7.69998 5.70659 7.99998 5.33325 7.99998ZM7.99992 7.99998C7.62658 7.99998 7.33325 7.69998 7.33325 7.33331C7.33325 6.96665 7.63325 6.66665 7.99992 6.66665C8.36658 6.66665 8.66658 6.96665 8.66658 7.33331C8.66658 7.69998 8.37325 7.99998 7.99992 7.99998ZM10.6666 7.99998C10.2933 7.99998 9.99992 7.69998 9.99992 7.33331C9.99992 6.96665 10.2999 6.66665 10.6666 6.66665C11.0333 6.66665 11.3333 6.96665 11.3333 7.33331C11.3333 7.69998 11.0399 7.99998 10.6666 7.99998Z" fill="#D0D5DD"/>
</svg>
