<svg width="609" height="609" viewBox="0 0 609 609" fill="none" xmlns="http://www.w3.org/2000/svg">
<path d="M304.5 50.7504C164.684 50.7504 50.7504 164.684 50.7504 304.5C50.7504 444.317 164.684 558.25 304.5 558.25C444.317 558.25 558.25 444.317 558.25 304.5C558.25 164.684 444.317 50.7504 304.5 50.7504ZM425.793 246.138L281.917 390.014C278.364 393.567 273.543 395.597 268.468 395.597C263.393 395.597 258.572 393.567 255.019 390.014L183.208 318.203C175.849 310.844 175.849 298.664 183.208 291.305C190.567 283.947 202.747 283.947 210.105 291.305L268.468 349.668L398.895 219.24C406.254 211.882 418.434 211.882 425.793 219.24C433.152 226.599 433.152 238.525 425.793 246.138Z" fill="#19B36E"/>
</svg>
