<svg width="100" height="100" viewBox="0 0 100 100" fill="none" xmlns="http://www.w3.org/2000/svg">
<path d="M0 16C0 7.16345 7.16344 0 16 0H84C92.8366 0 100 7.16344 100 16V84C100 92.8366 92.8366 100 84 100H16C7.16345 100 0 92.8366 0 84V16Z" fill="#7A5AF8"/>
<path d="M67.8202 48.24V39.46C67.8202 37.82 66.5802 35.96 65.0402 35.34L53.9002 30.78C51.4002 29.76 48.5802 29.76 46.0802 30.78L34.9402 35.34C33.4202 35.96 32.1802 37.82 32.1802 39.46V48.24C32.1802 58.02 39.2802 67.18 48.9802 69.86C49.6402 70.04 50.3602 70.04 51.0202 69.86C60.7202 67.18 67.8202 58.02 67.8202 48.24ZM51.5002 51.74V57C51.5002 57.82 50.8202 58.5 50.0002 58.5C49.1802 58.5 48.5002 57.82 48.5002 57V51.74C46.4802 51.1 45.0002 49.22 45.0002 47C45.0002 44.24 47.2402 42 50.0002 42C52.7602 42 55.0002 44.24 55.0002 47C55.0002 49.24 53.5202 51.1 51.5002 51.74Z" fill="#FEFEFE"/>
</svg>
