<svg width="601" height="601" viewBox="0 0 601 601" fill="none" xmlns="http://www.w3.org/2000/svg">
<path d="M300.5 50.0833C162.52 50.0833 50.0833 162.52 50.0833 300.5C50.0833 438.48 162.52 550.917 300.5 550.917C438.48 550.917 550.917 438.48 550.917 300.5C550.917 162.52 438.48 50.0833 300.5 50.0833ZM409.431 389.899C405.925 395.909 399.665 399.164 393.154 399.164C389.899 399.164 386.643 398.413 383.638 396.41L306.009 350.083C286.727 338.563 272.453 313.271 272.453 290.984V188.313C272.453 178.046 280.968 169.532 291.235 169.532C301.502 169.532 310.016 178.046 310.016 188.313V290.984C310.016 299.999 317.528 313.271 325.291 317.779L402.92 364.106C411.935 369.365 414.94 380.884 409.431 389.899Z" fill="#F79009"/>
</svg>
