<svg width="100" height="100" viewBox="0 0 100 100" fill="none" xmlns="http://www.w3.org/2000/svg">
<path d="M16 0.5H84C92.5604 0.5 99.5 7.43959 99.5 16V84C99.5 92.5604 92.5604 99.5 84 99.5H16C7.43959 99.5 0.5 92.5604 0.5 84V16C0.500001 7.43959 7.43959 0.5 16 0.5Z" fill="#7A5AF8" stroke="url(#paint0_linear_10180_43)"/>
<path d="M64.7404 35.78L53.0204 30.56C51.3004 29.8 48.7004 29.8 46.9804 30.56L35.2604 35.78C32.3004 37.1 31.8604 38.9 31.8604 39.86C31.8604 40.82 32.3004 42.62 35.2604 43.94L46.9804 49.16C47.8404 49.54 48.9204 49.74 50.0004 49.74C51.0804 49.74 52.1604 49.54 53.0204 49.16L64.7404 43.94C67.7004 42.62 68.1404 40.82 68.1404 39.86C68.1404 38.9 67.7204 37.1 64.7404 35.78Z" fill="#FEFEFE"/>
<path d="M49.9996 60.08C49.2396 60.08 48.4796 59.92 47.7796 59.62L34.2996 53.62C32.2396 52.7 30.6396 50.24 30.6396 47.98C30.6396 47.16 31.2996 46.5 32.1196 46.5C32.9396 46.5 33.5996 47.16 33.5996 47.98C33.5996 49.06 34.4996 50.46 35.4996 50.9L48.9796 56.9C49.6196 57.18 50.3596 57.18 50.9996 56.9L64.4796 50.9C65.4796 50.46 66.3797 49.08 66.3797 47.98C66.3797 47.16 67.0396 46.5 67.8596 46.5C68.6796 46.5 69.3396 47.16 69.3396 47.98C69.3396 50.22 67.7396 52.7 65.6796 53.62L52.1996 59.62C51.5196 59.92 50.7596 60.08 49.9996 60.08Z" fill="#FEFEFE"/>
<path d="M49.9996 70C49.2396 70 48.4796 69.84 47.7796 69.54L34.2996 63.54C32.0796 62.56 30.6396 60.34 30.6396 57.9C30.6396 57.08 31.2996 56.42 32.1196 56.42C32.9396 56.42 33.5996 57.08 33.5996 57.9C33.5996 59.16 34.3396 60.3 35.4996 60.82L48.9796 66.82C49.6196 67.1 50.3596 67.1 50.9996 66.82L64.4796 60.82C65.6196 60.32 66.3797 59.16 66.3797 57.9C66.3797 57.08 67.0396 56.42 67.8596 56.42C68.6796 56.42 69.3396 57.08 69.3396 57.9C69.3396 60.34 67.8996 62.54 65.6796 63.54L52.1996 69.54C51.5196 69.84 50.7596 70 49.9996 70Z" fill="#FEFEFE"/>
<defs>
<linearGradient id="paint0_linear_10180_43" x1="50" y1="0" x2="50" y2="103.409" gradientUnits="userSpaceOnUse">
<stop stop-color="#A787FF"/>
<stop offset="1" stop-color="#4F1ED8"/>
</linearGradient>
</defs>
</svg>
