<svg width="134" height="134" viewBox="0 0 134 134" fill="none" xmlns="http://www.w3.org/2000/svg">
<path d="M111.667 39.3067V94.6933C111.667 103.18 110.885 109.21 108.875 113.509C108.875 113.565 108.819 113.677 108.763 113.733C107.535 115.296 105.916 116.078 104.018 116.078C101.058 116.078 97.4851 114.123 93.6326 109.992C89.0543 105.078 82.019 105.469 77.999 110.829L72.3601 118.311C70.1268 121.326 67.1675 122.833 64.2083 122.833C61.2492 122.833 58.2899 121.326 56.0565 118.311L50.3618 110.773C46.3976 105.469 39.4183 105.078 34.8399 109.936L34.7841 109.992C28.4749 116.748 22.8918 117.753 19.6534 113.733C19.5976 113.677 19.5417 113.565 19.5417 113.509C17.5317 109.21 16.75 103.18 16.75 94.6933V39.3067C16.75 30.82 17.5317 24.79 19.5417 20.4908C19.5417 20.435 19.5418 20.3792 19.6534 20.3233C22.8359 16.2475 28.4749 17.2525 34.7841 24.0083L34.8399 24.0642C39.4183 28.9217 46.3976 28.5308 50.3618 23.2267L56.0565 15.6892C58.2899 12.6742 61.2492 11.1667 64.2083 11.1667C67.1675 11.1667 70.1268 12.6742 72.3601 15.6892L77.999 23.1708C82.019 28.5308 89.0543 28.9217 93.6326 24.0083C97.4851 19.8767 101.058 17.9225 104.018 17.9225C105.916 17.9225 107.535 18.76 108.763 20.3233C108.875 20.3792 108.875 20.435 108.875 20.4908C110.885 24.79 111.667 30.82 111.667 39.3067Z" stroke="#7A5AF8" stroke-width="1.5" stroke-linecap="round" stroke-linejoin="round"/>
<path d="M44.6666 57.2292H89.3333" stroke="#7A5AF8" stroke-width="1.5" stroke-linecap="round" stroke-linejoin="round"/>
<path d="M44.6666 76.7708H78.1666" stroke="#7A5AF8" stroke-width="1.5" stroke-linecap="round" stroke-linejoin="round"/>
</svg>
