<svg width="18" height="18" viewBox="0 0 18 18" fill="none" xmlns="http://www.w3.org/2000/svg">
<g clip-path="url(#clip0_8062_16164)">
<path d="M15.465 6.525C14.685 3.0525 11.655 1.5 9 1.5C9 1.5 9 1.5 8.9925 1.5C6.345 1.5 3.3225 3.0525 2.535 6.5175C1.65 10.3875 4.02 13.665 6.165 15.735C6.96 16.5 7.98 16.8825 9 16.8825C10.02 16.8825 11.04 16.5 11.8275 15.735C13.9725 13.665 16.3425 10.395 15.465 6.525ZM11.46 7.1475L8.46 10.1475C8.3475 10.26 8.205 10.3125 8.0625 10.3125C7.92 10.3125 7.7775 10.26 7.665 10.1475L6.54 9.0225C6.3225 8.805 6.3225 8.445 6.54 8.2275C6.7575 8.01 7.1175 8.01 7.335 8.2275L8.0625 8.955L10.665 6.3525C10.8825 6.135 11.2425 6.135 11.46 6.3525C11.6775 6.57 11.6775 6.93 11.46 7.1475Z" fill="#7A5AF8"/>
</g>
<defs>
<clipPath id="clip0_8062_16164">
<rect width="18" height="18" fill="white"/>
</clipPath>
</defs>
</svg>
