<svg width="16" height="16" viewBox="0 0 16 16" fill="none" xmlns="http://www.w3.org/2000/svg">
<path d="M11.2 1.33334H9.46667C7.33333 1.33334 6 2.66668 6 4.80001V7.50001H10.1667C10.44 7.50001 10.6667 7.72668 10.6667 8.00001C10.6667 8.27334 10.44 8.50001 10.1667 8.50001H6V11.2C6 13.3333 7.33333 14.6667 9.46667 14.6667H11.1933C13.3267 14.6667 14.66 13.3333 14.66 11.2V4.80001C14.6667 2.66668 13.3333 1.33334 11.2 1.33334Z" fill="#F14E4E"/>
<path d="M3.04001 7.50001L4.42001 6.12001C4.52001 6.02001 4.56667 5.89334 4.56667 5.76667C4.56667 5.64001 4.52001 5.50667 4.42001 5.41334C4.22667 5.22001 3.90667 5.22001 3.71334 5.41334L1.48001 7.64667C1.28667 7.84001 1.28667 8.16001 1.48001 8.35334L3.71334 10.5867C3.90667 10.78 4.22667 10.78 4.42001 10.5867C4.61334 10.3933 4.61334 10.0733 4.42001 9.88001L3.04001 8.50001H6.00001V7.50001H3.04001Z" fill="#F14E4E"/>
</svg>
