<svg width="100" height="100" viewBox="0 0 100 100" fill="none" xmlns="http://www.w3.org/2000/svg">
<path d="M16 0.5H84C92.5604 0.500001 99.5 7.43959 99.5 16V84C99.5 92.5604 92.5604 99.5 84 99.5H16C7.43959 99.5 0.5 92.5604 0.5 84V16C0.500001 7.43959 7.43959 0.5 16 0.5Z" fill="#E34D4D" stroke="#F95555"/>
<path d="M67.8202 48.2401V39.4601C67.8202 37.8201 66.5802 35.9601 65.0402 35.3401L53.9002 30.7801C51.4002 29.7601 48.5802 29.7601 46.0802 30.7801L34.9402 35.3401C33.4202 35.9601 32.1802 37.8201 32.1802 39.4601V48.2401C32.1802 58.0201 39.2802 67.1801 48.9802 69.8601C49.6402 70.0401 50.3602 70.0401 51.0202 69.8601C60.7202 67.1801 67.8202 58.0201 67.8202 48.2401ZM51.5002 51.7401V57.0001C51.5002 57.8201 50.8202 58.5001 50.0002 58.5001C49.1802 58.5001 48.5002 57.8201 48.5002 57.0001V51.7401C46.4802 51.1001 45.0002 49.2201 45.0002 47.0001C45.0002 44.2401 47.2402 42.0001 50.0002 42.0001C52.7602 42.0001 55.0002 44.2401 55.0002 47.0001C55.0002 49.2401 53.5202 51.1001 51.5002 51.7401Z" fill="#FEFEFE"/>
</svg>
