<svg width="20" height="20" viewBox="0 0 20 20" fill="none" xmlns="http://www.w3.org/2000/svg">
<path d="M14.1665 2.0249H5.83317C3.33317 2.0249 1.6665 3.69157 1.6665 6.19157V11.1916C1.6665 13.6916 3.33317 15.3582 5.83317 15.3582H9.1665L12.8748 17.8249C13.4248 18.1916 14.1665 17.7999 14.1665 17.1332V15.3582C16.6665 15.3582 18.3332 13.6916 18.3332 11.1916V6.19157C18.3332 3.69157 16.6665 2.0249 14.1665 2.0249ZM12.9165 9.3749H7.08317C6.7415 9.3749 6.45817 9.09157 6.45817 8.7499C6.45817 8.40824 6.7415 8.1249 7.08317 8.1249H12.9165C13.2582 8.1249 13.5415 8.40824 13.5415 8.7499C13.5415 9.09157 13.2582 9.3749 12.9165 9.3749Z" fill="#6E62FF"/>
</svg>
