<svg width="20" height="20" viewBox="0 0 20 20" fill="none" xmlns="http://www.w3.org/2000/svg">
<path d="M10 18.275C5.8 18.275 2.375 14.8583 2.375 10.65V9.08333C2.375 8.75833 2.64167 8.5 2.95833 8.5C3.275 8.5 3.54167 8.76667 3.54167 9.08333V10.65C3.54167 14.2083 6.43333 17.1 9.99167 17.1C13.55 17.1 16.4417 14.2083 16.4417 10.65V9.08333C16.4417 8.75833 16.7083 8.5 17.025 8.5C17.3417 8.5 17.6083 8.76667 17.6083 9.08333V10.65C17.625 14.8583 14.2 18.275 10 18.275Z" fill="#FEFEFE"/>
<path d="M10 1.66663C7.2 1.66663 4.91667 3.94996 4.91667 6.74996V10.6583C4.91667 13.4583 7.2 15.7416 10 15.7416C12.8 15.7416 15.0833 13.4583 15.0833 10.6583V6.74996C15.0833 3.94996 12.8 1.66663 10 1.66663ZM11.8167 8.82496C11.7583 9.04996 11.55 9.19996 11.325 9.19996C11.2833 9.19996 11.2333 9.19163 11.1917 9.18329C10.3417 8.94996 9.44167 8.94996 8.59167 9.18329C8.31667 9.25829 8.04167 9.09996 7.96667 8.82496C7.89167 8.55829 8.05 8.27496 8.325 8.19996C9.35 7.91663 10.4333 7.91663 11.4583 8.19996C11.7333 8.27496 11.8917 8.54996 11.8167 8.82496ZM12.525 6.51663C12.45 6.72496 12.2583 6.84996 12.05 6.84996C11.9917 6.84996 11.9333 6.84163 11.875 6.81663C10.6 6.34996 9.2 6.34996 7.925 6.81663C7.65833 6.91663 7.36667 6.78329 7.26667 6.51663C7.175 6.25829 7.30833 5.96663 7.575 5.86663C9.075 5.32496 10.725 5.32496 12.2167 5.86663C12.4833 5.96663 12.6167 6.25829 12.525 6.51663Z" fill="#FEFEFE"/>
</svg>
