<svg width="20" height="20" viewBox="0 0 20 20" fill="none" xmlns="http://www.w3.org/2000/svg">
<path d="M5.925 4.96661L13.4417 2.45828C16.8167 1.33328 18.65 3.17495 17.5333 6.54995L15.025 14.0666C13.3417 19.1249 10.575 19.1249 8.89167 14.0666L8.15 11.8333L5.91667 11.0916C0.866666 9.41661 0.866666 6.65828 5.925 4.96661Z" fill="#FEFEFE"/>
<path d="M10.1 9.69163L13.275 6.5083L10.1 9.69163Z" fill="#FEFEFE"/>
<path d="M10.1 10.3166C9.94167 10.3166 9.78334 10.2583 9.65834 10.1333C9.41667 9.89163 9.41667 9.49163 9.65834 9.24996L12.825 6.06663C13.0667 5.82496 13.4667 5.82496 13.7083 6.06663C13.95 6.30829 13.95 6.70829 13.7083 6.94996L10.5417 10.1333C10.4167 10.25 10.2583 10.3166 10.1 10.3166Z" fill="#7A5AF8"/>
</svg>
