<svg width="866" height="866" viewBox="0 0 866 866" fill="none" xmlns="http://www.w3.org/2000/svg">
<path d="M433 72.1666C233.82 72.1666 72.1666 233.82 72.1666 433C72.1666 632.18 233.82 793.833 433 793.833C632.18 793.833 793.833 632.18 793.833 433C793.833 233.82 632.18 72.1666 433 72.1666ZM307.791 486.042C318.255 496.507 318.255 513.827 307.791 524.291C302.378 529.703 295.522 532.229 288.667 532.229C281.811 532.229 274.955 529.703 269.542 524.291L197.376 452.124C186.912 441.66 186.912 424.34 197.376 413.876L269.542 341.709C280.007 331.245 297.327 331.245 307.791 341.709C318.255 352.173 318.255 369.493 307.791 379.957L254.748 433L307.791 486.042ZM493.981 359.39L421.814 527.899C417.484 538.002 407.381 544.137 396.917 544.137C393.308 544.137 389.7 543.415 386.452 541.972C372.741 536.198 366.246 520.322 372.38 506.249L444.547 337.74C450.32 324.028 466.197 317.533 479.908 323.667C493.62 329.802 499.754 345.678 493.981 359.39ZM668.624 452.124L596.457 524.291C591.045 529.703 584.189 532.229 577.333 532.229C570.477 532.229 563.622 529.703 558.209 524.291C547.745 513.827 547.745 496.507 558.209 486.042L611.252 433L558.209 379.957C547.745 369.493 547.745 352.173 558.209 341.709C568.673 331.245 585.993 331.245 596.457 341.709L668.624 413.876C679.088 424.34 679.088 441.66 668.624 452.124Z" fill="#7A5AF8"/>
</svg>
