<svg width="20" height="20" viewBox="0 0 20 20" fill="none" xmlns="http://www.w3.org/2000/svg">
<path d="M14.1665 2.02499H5.83317C3.33317 2.02499 1.6665 3.69166 1.6665 6.19166V11.1917C1.6665 13.6917 3.33317 15.3583 5.83317 15.3583H9.1665L12.8748 17.825C13.4248 18.1917 14.1665 17.8 14.1665 17.1333V15.3583C16.6665 15.3583 18.3332 13.6917 18.3332 11.1917V6.19166C18.3332 3.69166 16.6665 2.02499 14.1665 2.02499ZM12.9165 9.37499H7.08317C6.7415 9.37499 6.45817 9.09166 6.45817 8.74999C6.45817 8.40833 6.7415 8.12499 7.08317 8.12499H12.9165C13.2582 8.12499 13.5415 8.40833 13.5415 8.74999C13.5415 9.09166 13.2582 9.37499 12.9165 9.37499Z" fill="#6E62FF"/>
</svg>
