<svg width="437" height="437" viewBox="0 0 437 437" fill="none" xmlns="http://www.w3.org/2000/svg">
<path d="M400.583 386.927C400.583 394.393 394.393 400.583 386.927 400.583H50.0729C42.6075 400.583 36.4167 394.393 36.4167 386.927C36.4167 379.462 42.6075 373.271 50.0729 373.271H386.927C394.393 373.271 400.583 379.462 400.583 386.927Z" fill="#D0D5DD"/>
<path d="M280.226 82.3017L84.6687 277.859C77.2033 285.325 65.1858 285.325 57.9025 277.859H57.7204C32.4108 252.367 32.4108 211.217 57.7204 185.907L187.91 55.7175C213.402 30.2258 254.552 30.2258 280.044 55.7175C287.51 62.8188 287.51 75.0183 280.226 82.3017Z" fill="#7A5AF8"/>
<path d="M379.098 154.589L323.562 99.0533C316.097 91.5879 304.079 91.5879 296.796 99.0533L101.238 294.611C93.7729 301.894 93.7729 313.912 101.238 321.377L156.774 377.095C182.265 402.404 223.416 402.404 248.908 377.095L378.915 246.905C404.771 221.413 404.771 180.08 379.098 154.589ZM232.338 319.01L210.306 341.224C205.754 345.776 198.289 345.776 193.555 341.224C189.003 336.672 189.003 329.207 193.555 324.472L215.769 302.258C220.139 297.888 227.786 297.888 232.338 302.258C236.89 306.81 236.89 314.64 232.338 319.01ZM304.625 246.723L260.197 291.333C255.645 295.703 248.18 295.703 243.445 291.333C238.893 286.781 238.893 279.316 243.445 274.582L288.056 229.971C292.426 225.601 300.073 225.601 304.625 229.971C309.178 234.705 309.178 242.171 304.625 246.723Z" fill="#7A5AF8"/>
</svg>
