<svg width="100" height="100" viewBox="0 0 100 100" fill="none" xmlns="http://www.w3.org/2000/svg">
<path d="M16 0.5H84C92.5604 0.5 99.5 7.43959 99.5 16V84C99.5 92.5604 92.5604 99.5 84 99.5H16C7.43959 99.5 0.5 92.5604 0.5 84V16C0.500001 7.43959 7.43959 0.5 16 0.5Z" fill="#7A5AF8" stroke="url(#paint0_linear_10190_5692)"/>
<path d="M61.82 47.4398H55.64V33.0398C55.64 29.6798 53.82 28.9998 51.6 31.5198L50 33.3398L36.46 48.7398C34.6 50.8398 35.38 52.5598 38.18 52.5598H44.36V66.9598C44.36 70.3198 46.18 70.9998 48.4 68.4798L50 66.6598L63.54 51.2598C65.4 49.1598 64.62 47.4398 61.82 47.4398Z" fill="#FEFEFE"/>
<defs>
<linearGradient id="paint0_linear_10190_5692" x1="50" y1="0" x2="50" y2="103.409" gradientUnits="userSpaceOnUse">
<stop stop-color="#A787FF"/>
<stop offset="1" stop-color="#4F1ED8"/>
</linearGradient>
</defs>
</svg>
