<svg width="100" height="100" viewBox="0 0 100 100" fill="none" xmlns="http://www.w3.org/2000/svg">
<path d="M16 0.5H84C92.5604 0.5 99.5 7.43959 99.5 16V84C99.5 92.5604 92.5604 99.5 84 99.5H16C7.43959 99.5 0.5 92.5604 0.5 84V16C0.500001 7.43959 7.43959 0.5 16 0.5Z" fill="#7A5AF8" stroke="url(#paint0_linear_10190_5362)"/>
<path d="M50 50C55.5228 50 60 45.5228 60 40C60 34.4772 55.5228 30 50 30C44.4772 30 40 34.4772 40 40C40 45.5228 44.4772 50 50 50Z" fill="#FEFEFE"/>
<path d="M50.0001 55C39.9801 55 31.8201 61.72 31.8201 70C31.8201 70.56 32.2601 71 32.8201 71H67.1801C67.7401 71 68.1801 70.56 68.1801 70C68.1801 61.72 60.0201 55 50.0001 55Z" fill="#FEFEFE"/>
<defs>
<linearGradient id="paint0_linear_10190_5362" x1="50" y1="0" x2="50" y2="103.409" gradientUnits="userSpaceOnUse">
<stop stop-color="#A787FF"/>
<stop offset="1" stop-color="#4F1ED8"/>
</linearGradient>
</defs>
</svg>
